<?xml version="1.0" ?><svg id="Layer_1" style="enable-background:new 0 0 700 700;" version="1.1" viewBox="0 0 700 700" xml:space="preserve" xmlns="http://www.w3.org/2000/svg" xmlns:xlink="http://www.w3.org/1999/xlink"><style type="text/css">
	.st0{fill:#F9809A;stroke:#000000;stroke-width:10;stroke-linecap:round;stroke-linejoin:round;stroke-miterlimit:10;}
	.st1{fill:#EFC4AC;stroke:#000000;stroke-width:10;stroke-linecap:round;stroke-linejoin:round;stroke-miterlimit:10;}
	.st2{fill:none;stroke:#000000;stroke-width:10;stroke-linecap:round;stroke-linejoin:round;stroke-miterlimit:10;}
	.st3{fill:#FFFFFF;stroke:#000000;stroke-width:10;stroke-linecap:round;stroke-linejoin:round;stroke-miterlimit:10;}
</style><g><path class="st0" d="M457.2,361.04c48.43-0.19,87.57-39.48,87.57-87.91c0-48.49-39.36-87.85-87.91-87.85   c-48.37,0-87.59,39.02-87.91,87.2"/><path class="st1" d="M353.51,605h48.4c15.44,0,28.27-11.93,29.38-27.33l11.61-160.74l14.3-29.32v-98.68   c0-9.08-7.36-16.45-16.45-16.45h-87.24h-87.24c-9.08,0-16.45,7.36-16.45,16.45v98.68l14.3,29.32l11.61,160.74   c1.11,15.4,13.93,27.33,29.38,27.33H353.51z"/><path class="st0" d="M368.75,572.3h-27.98c-18.2,0-33.3-14.08-34.56-32.24l-8.94-128.44h114.99l-8.94,128.44   C402.05,558.22,386.95,572.3,368.75,572.3z"/><path class="st0" d="M240.44,181.79l45.32-27.41c3-1.81,4.17-5.58,2.74-8.77l0,0c-1.06-2.38-3.37-3.96-5.97-4.1l-97.06-5.07l0,0   l-29.89,92.48c-0.8,2.48-0.15,5.2,1.7,7.04l0,0c2.48,2.48,6.41,2.72,9.18,0.57l41.77-32.56"/><line class="st2" x1="333.35" x2="333.35" y1="272.48" y2="248.01"/><line class="st2" x1="333.35" x2="333.35" y1="152.96" y2="95"/><path class="st3" d="M333.71,248.01L333.71,248.01c-10.94,0-19.8-8.86-19.8-19.8v-55.45c0-10.94,8.86-19.8,19.8-19.8l0,0   c10.94,0,19.8,8.86,19.8,19.8v55.45C353.51,239.14,344.64,248.01,333.71,248.01z"/><path class="st2" d="M400.52,261.95c0-30.1,24.4-51.75,54.5-51.75c2.81,0,5.58,0.21,8.27,0.62"/><line class="st2" x1="208.21" x2="279.41" y1="173.51" y2="272.48"/></g></svg>