<?xml version="1.0" standalone="no"?>
<!DOCTYPE svg PUBLIC "-//W3C//DTD SVG 20010904//EN"
 "http://www.w3.org/TR/2001/REC-SVG-20010904/DTD/svg10.dtd">
<svg version="1.0" xmlns="http://www.w3.org/2000/svg"
 width="560.000000pt" height="560.000000pt" viewBox="0 0 560.000000 560.000000"
 preserveAspectRatio="xMidYMid meet">

<g transform="translate(0.000000,560.000000) scale(0.100000,-0.100000)"
fill="#000000" stroke="none">
<path d="M2520 5584 c-497 -58 -920 -214 -1310 -482 -270 -186 -519 -435 -705
-702 -262 -378 -411 -766 -482 -1250 -25 -174 -25 -526 0 -700 24 -163 50
-290 88 -420 200 -702 664 -1293 1303 -1660 338 -194 695 -307 1116 -355 395
-44 853 16 1255 167 750 280 1354 884 1633 1633 124 332 177 626 177 985 0
290 -29 503 -106 770 -267 935 -1000 1662 -1939 1924 -335 94 -717 127 -1030
90z m-1154 -1902 c120 -38 195 -83 281 -167 88 -87 136 -170 168 -290 73 -273
-42 -546 -276 -658 -71 -34 -185 -62 -194 -47 -2 4 12 22 31 41 101 96 185
241 211 365 29 131 -7 287 -91 402 -151 204 -468 228 -645 48 -90 -92 -126
-193 -119 -334 5 -103 28 -161 83 -215 56 -55 116 -70 247 -65 l109 5 -3 -121
-3 -121 -115 -3 c-135 -3 -229 14 -320 60 -253 126 -337 518 -174 813 44 81
168 196 257 240 122 60 198 75 357 71 98 -3 152 -10 196 -24z m1492 -79 l-3
-108 -210 -5 -210 -5 -2 -480 -2 -480 -111 -3 -110 -3 0 483 1 483 -208 5
-208 5 -3 108 -3 107 536 0 536 0 -3 -107z m847 79 c280 -90 450 -301 471
-585 16 -224 -103 -438 -296 -530 -72 -34 -186 -62 -195 -47 -2 4 12 22 31 41
101 97 184 239 211 363 23 104 7 218 -43 324 -92 192 -298 289 -499 237 -33
-9 -79 -26 -103 -37 -61 -31 -138 -116 -175 -195 -30 -64 -32 -74 -32 -183 0
-129 16 -179 73 -236 58 -59 93 -69 235 -69 l128 0 -3 -120 -3 -120 -115 -3
c-135 -3 -229 14 -320 60 -253 126 -337 518 -174 813 43 79 166 194 254 238
124 62 202 78 360 73 97 -3 152 -10 195 -24z m1245 -28 c90 -43 143 -93 180
-167 92 -187 43 -409 -114 -517 -84 -57 -146 -70 -336 -70 l-171 0 3 108 3
107 170 5 c184 5 212 13 254 66 42 54 39 161 -6 215 -50 59 -87 69 -280 69
l-173 0 0 -475 0 -475 -110 0 -110 0 -2 581 c-2 319 -1 583 2 585 2 3 144 4
315 2 l310 -3 65 -31z m-4257 -1498 c54 -23 80 -59 84 -118 7 -96 -59 -162
-153 -155 -85 6 -134 59 -134 144 0 107 102 172 203 129z m878 -16 c15 -54 2
-71 -19 -25 -9 19 -19 25 -42 25 l-30 0 0 -115 c0 -111 1 -116 23 -125 27 -11
20 -12 -58 -11 -75 0 -73 0 -52 12 15 9 17 26 17 124 l0 115 -25 0 c-17 0 -29
-8 -37 -25 -6 -14 -15 -25 -20 -25 -12 0 -10 54 2 66 6 6 58 10 122 10 111 -1
112 -1 119 -26z m657 -23 c3 -44 4 -46 23 -36 15 8 29 7 50 -2 38 -15 49 -36
49 -94 0 -38 -5 -52 -29 -76 -31 -30 -77 -39 -98 -18 -8 8 -17 8 -32 0 -21
-12 -21 -11 -21 118 0 76 -4 132 -10 136 -22 13 -8 24 28 22 37 -2 37 -2 40
-50z m930 26 c123 -90 42 -280 -110 -260 -55 7 -87 32 -110 84 -32 72 -5 152
63 186 43 22 120 17 157 -10z m800 0 c67 -50 21 -133 -73 -133 -23 0 -25 -3
-25 -50 0 -36 4 -52 15 -56 31 -12 13 -19 -47 -17 -35 1 -65 2 -68 3 -2 0 6 7
18 16 20 14 22 23 22 119 0 92 -2 106 -21 123 -20 20 -20 20 66 17 68 -2 92
-6 113 -22z m630 -98 c1 -68 7 -124 14 -132 6 -7 9 -15 7 -17 -8 -8 -64 -10
-74 -4 -6 4 -17 3 -25 -3 -25 -15 -50 -10 -75 16 -20 19 -25 34 -25 72 0 75
52 128 101 103 17 -10 19 -7 19 24 0 19 -4 38 -10 41 -22 13 -8 24 28 21 l37
-2 3 -119z m542 65 c0 -24 4 -30 21 -30 12 0 19 -5 16 -12 -2 -7 -11 -12 -21
-10 -14 2 -16 -8 -16 -73 0 -73 1 -75 20 -65 29 15 26 -6 -4 -25 -18 -12 -30
-13 -50 -6 -25 10 -26 14 -26 86 0 56 -4 77 -14 81 -11 4 -5 16 22 44 21 22
40 39 45 40 4 0 7 -13 7 -30z m-4162 -36 c19 -13 22 -24 22 -88 0 -43 5 -77
12 -84 9 -9 2 -12 -32 -12 l-45 0 3 81 c3 74 2 80 -15 77 -16 -3 -18 -14 -18
-81 l0 -77 -44 0 c-35 0 -42 3 -33 12 15 15 16 144 2 153 -5 3 -10 11 -10 17
0 7 17 9 48 5 26 -3 55 -1 63 4 19 12 21 11 47 -7z m196 -6 c14 -13 28 -35 32
-50 6 -28 6 -28 -45 -28 -44 0 -51 -3 -51 -20 0 -11 9 -29 21 -41 19 -19 22
-19 44 -5 32 21 38 20 26 -3 -16 -30 -66 -46 -100 -32 -68 29 -68 149 0 187
33 19 44 17 73 -8z m583 1 c8 -8 13 -35 13 -79 0 -45 4 -70 13 -74 8 -3 6 -9
-7 -20 -24 -20 -31 -20 -49 -1 -13 13 -19 13 -43 0 -27 -14 -55 -8 -69 15 -10
16 13 48 60 80 33 22 43 35 38 48 -15 39 -47 37 -37 -3 4 -18 1 -25 -15 -30
-50 -16 -57 36 -8 66 33 21 77 20 104 -2z m241 -2 c8 -6 16 -6 25 1 28 22 56
23 76 3 17 -17 21 -34 21 -89 0 -40 5 -73 12 -80 9 -9 0 -12 -41 -12 -45 0
-52 2 -42 14 7 9 11 40 9 78 -3 55 -5 63 -23 63 -18 0 -20 -7 -20 -78 l0 -77
-44 0 c-36 0 -42 2 -32 14 7 9 11 40 9 78 -3 55 -5 63 -23 63 -18 0 -20 -7
-20 -78 l0 -77 -44 0 c-35 0 -42 3 -33 12 7 7 12 41 12 83 0 42 -5 76 -12 83
-9 9 -4 12 24 12 20 0 39 -4 43 -9 3 -6 16 -4 31 4 26 13 47 11 72 -8z m522 8
c37 -19 50 -43 50 -95 0 -100 -121 -136 -166 -49 -28 55 -4 127 51 150 28 11
33 11 65 -6z m256 -17 c4 -6 8 -42 9 -79 2 -37 6 -72 9 -78 5 -7 -8 -11 -40
-11 -37 0 -45 3 -36 12 14 14 16 116 3 137 -5 8 -16 11 -26 7 -15 -5 -17 -17
-13 -81 l3 -75 -44 0 c-35 0 -42 3 -33 12 16 16 16 150 0 167 -11 11 -4 13 37
8 28 -2 59 -1 70 3 21 8 49 -2 61 -22z m642 16 c19 -13 22 -24 22 -89 0 -41 5
-77 10 -80 20 -12 1 -21 -37 -17 l-38 4 4 79 c2 63 0 79 -11 79 -27 0 -38 -24
-38 -80 0 -31 5 -61 12 -68 9 -9 2 -12 -32 -12 l-45 0 0 95 0 95 33 0 c17 0
32 -5 32 -10 0 -6 12 -4 28 4 34 19 33 19 60 0z m183 6 c18 -10 49 -59 49 -79
0 -5 -24 -11 -52 -13 -47 -3 -53 -5 -50 -23 2 -11 13 -28 24 -38 19 -16 23
-16 45 -1 37 23 38 10 3 -20 -53 -44 -111 -27 -129 39 -23 85 45 169 110 135z
m585 -35 c-4 -12 -13 -15 -35 -10 -16 3 -32 2 -34 -3 -8 -12 -10 -115 -3 -132
5 -13 -2 -15 -39 -12 -40 4 -44 6 -35 22 13 24 13 137 0 145 -21 13 -9 25 25
25 24 0 35 -5 35 -15 0 -20 7 -19 38 5 22 18 27 19 40 6 8 -8 12 -22 8 -31z
m178 3 c25 -27 28 -36 23 -77 -10 -86 -90 -120 -148 -62 -23 23 -29 38 -29 71
0 51 12 75 48 95 36 20 71 11 106 -27z m654 20 c18 -15 11 -52 -10 -56 -12 -2
-21 5 -27 21 -12 30 -27 41 -37 26 -9 -15 -9 -78 0 -107 9 -26 50 -39 71 -22
29 24 30 -2 2 -26 -31 -26 -57 -30 -90 -12 -35 18 -46 40 -46 88 -1 85 79 136
137 88z m-296 -63 c-3 -80 7 -106 32 -86 20 16 22 131 4 149 -9 9 -3 12 30 12
l42 0 0 -83 c0 -53 5 -88 13 -96 10 -10 3 -12 -38 -10 -27 1 -58 -1 -68 -6
-26 -11 -65 10 -71 37 -3 13 -7 54 -9 91 l-3 68 35 -3 36 -3 -3 -70z"/>
<path d="M591 2131 c-23 -23 -36 -94 -26 -149 13 -77 74 -107 114 -56 36 46
27 190 -13 216 -20 14 -56 8 -75 -11z"/>
<path d="M2242 2048 c-7 -7 -12 -39 -12 -75 0 -50 4 -65 16 -70 25 -9 44 24
44 75 0 43 -13 82 -28 82 -5 0 -13 -5 -20 -12z"/>
<path d="M3037 2138 c-59 -45 -45 -218 19 -234 58 -15 86 31 82 133 -3 53 -8
77 -22 92 -21 24 -54 27 -79 9z"/>
<path d="M3860 2085 c0 -59 13 -70 44 -39 32 31 15 94 -26 94 -15 0 -18 -9
-18 -55z"/>
<path d="M4476 2044 c-3 -9 -6 -37 -6 -64 0 -55 20 -81 45 -60 18 15 21 110 3
128 -17 17 -35 15 -42 -4z"/>
<path d="M1107 2050 c-20 -28 -14 -40 19 -40 27 0 31 17 11 45 -13 17 -15 17
-30 -5z"/>
<path d="M1669 1959 c-8 -15 -8 -24 0 -32 14 -14 34 4 36 33 2 26 -21 26 -36
-1z"/>
<path d="M2463 2063 c-9 -3 -13 -29 -13 -79 0 -59 3 -76 16 -81 23 -9 34 15
34 78 0 57 -15 90 -37 82z"/>
<path d="M3541 2051 c-17 -31 -13 -41 15 -41 22 0 25 4 22 27 -4 33 -23 41
-37 14z"/>
<path d="M4270 2050 c-12 -23 -13 -120 -1 -139 26 -41 59 47 45 118 -8 36 -30
47 -44 21z"/>
</g>
</svg>
