<?xml version="1.0" standalone="no"?>
<!DOCTYPE svg PUBLIC "-//W3C//DTD SVG 20010904//EN"
 "http://www.w3.org/TR/2001/REC-SVG-20010904/DTD/svg10.dtd">
<svg version="1.0" xmlns="http://www.w3.org/2000/svg"
 width="900.000000pt" height="1121.000000pt" viewBox="0 0 900.000000 1121.000000"
 preserveAspectRatio="xMidYMid meet">

<g transform="translate(0.000000,1121.000000) scale(0.100000,-0.100000)"
fill="#000000" stroke="none">
<path d="M4235 11199 c-444 -36 -839 -176 -1090 -386 -319 -266 -450 -591
-432 -1072 7 -167 21 -257 63 -388 26 -82 27 -83 68 -93 63 -16 137 -54 214
-110 248 -181 586 -316 922 -367 169 -25 489 -23 675 5 246 38 538 120 691
194 29 14 71 43 93 64 42 39 120 86 159 96 25 7 106 164 146 282 53 159 69
266 70 456 0 197 -16 312 -66 470 -155 489 -582 797 -1179 850 -128 11 -189
11 -334 -1z m772 -462 c59 -87 109 -266 97 -345 -19 -117 -132 -197 -324 -228
-146 -24 -390 -13 -428 18 -11 9 -10 14 2 26 11 12 52 17 163 23 90 5 170 14
203 24 219 68 294 207 225 422 -35 111 -33 147 9 120 12 -8 35 -35 53 -60z"/>
<path d="M5736 9132 c-3 -5 1 -9 9 -9 8 0 12 4 9 9 -3 4 -7 8 -9 8 -2 0 -6 -4
-9 -8z"/>
<path d="M5579 9118 c-5 -18 -6 -38 -1 -34 7 8 12 36 6 36 -2 0 -4 -1 -5 -2z"/>
<path d="M5625 9100 c-4 -6 -11 -7 -17 -4 -7 4 -8 2 -4 -5 6 -9 11 -9 22 0 14
11 18 19 10 19 -3 0 -8 -5 -11 -10z"/>
<path d="M5505 9071 c-3 -5 -2 -12 3 -15 5 -3 9 1 9 9 0 17 -3 19 -12 6z"/>
<path d="M5613 9055 c0 -8 4 -12 9 -9 5 3 6 10 3 15 -9 13 -12 11 -12 -6z"/>
<path d="M5645 9061 c-3 -5 -1 -12 5 -16 6 -4 7 -12 3 -18 -4 -7 0 -6 10 2 20
16 22 22 5 19 -7 -2 -12 3 -10 10 2 14 -4 16 -13 3z"/>
<path d="M5475 9051 c-3 -5 -2 -12 3 -15 5 -3 9 1 9 9 0 17 -3 19 -12 6z"/>
<path d="M5520 9030 c-6 -11 -16 -17 -22 -14 -7 4 -8 3 -4 -5 4 -6 12 -9 17
-6 11 7 32 45 25 45 -3 0 -10 -9 -16 -20z"/>
<path d="M5696 9038 c3 -5 10 -6 15 -3 13 9 11 12 -6 12 -8 0 -12 -4 -9 -9z"/>
<path d="M5459 9027 c6 -8 7 -18 3 -22 -4 -5 -1 -5 6 -1 10 6 10 11 1 22 -6 8
-14 14 -16 14 -3 0 0 -6 6 -13z"/>
<path d="M5585 9031 c-3 -5 -2 -12 3 -15 5 -3 9 1 9 9 0 17 -3 19 -12 6z"/>
<path d="M5669 9013 c-13 -16 -12 -17 4 -4 9 7 17 15 17 17 0 8 -8 3 -21 -13z"/>
<path d="M5439 9018 c-5 -11 -4 -80 1 -83 3 -2 6 16 6 41 0 38 -3 52 -7 42z"/>
<path d="M5633 9005 c0 -8 4 -12 9 -9 5 3 6 10 3 15 -9 13 -12 11 -12 -6z"/>
<path d="M5609 9008 c-5 -18 -6 -38 -1 -34 7 8 12 36 6 36 -2 0 -4 -1 -5 -2z"/>
<path d="M5504 8965 c0 -13 3 -22 7 -19 8 4 6 30 -2 38 -3 3 -5 -5 -5 -19z"/>
<path d="M5539 8988 c-6 -20 -6 -39 0 -42 4 -3 7 6 7 20 0 20 -4 32 -7 22z"/>
<path d="M5385 8961 c-3 -5 -1 -12 5 -16 6 -4 7 -12 3 -18 -4 -7 0 -6 10 2 20
16 22 22 5 19 -7 -2 -12 3 -10 10 2 14 -4 16 -13 3z"/>
<path d="M5287 8929 c7 -9 9 -20 5 -25 -4 -4 1 -2 11 5 9 7 17 16 17 19 0 3
-3 2 -7 -1 -3 -4 -13 -1 -22 6 -14 10 -14 10 -4 -4z"/>
<path d="M5423 8915 c0 -8 4 -12 9 -9 5 3 6 10 3 15 -9 13 -12 11 -12 -6z"/>
<path d="M5456 8922 c-3 -5 1 -9 9 -9 8 0 12 4 9 9 -3 4 -7 8 -9 8 -2 0 -6 -4
-9 -8z"/>
<path d="M5345 8911 c-3 -5 -2 -12 3 -15 5 -3 9 1 9 9 0 17 -3 19 -12 6z"/>
<path d="M5373 8905 c0 -8 4 -12 9 -9 5 3 6 10 3 15 -9 13 -12 11 -12 -6z"/>
<path d="M5204 8896 c1 -8 5 -18 8 -22 4 -3 5 1 4 10 -1 8 -5 18 -8 22 -4 3
-5 -1 -4 -10z"/>
<path d="M5179 8898 c-6 -20 -6 -39 0 -42 4 -3 7 6 7 20 0 20 -4 32 -7 22z"/>
<path d="M5234 8886 c1 -8 5 -18 8 -22 4 -3 5 1 4 10 -1 8 -5 18 -8 22 -4 3
-5 -1 -4 -10z"/>
<path d="M5269 8898 c-4 -12 -5 -57 0 -53 6 6 10 55 4 55 -1 0 -3 -1 -4 -2z"/>
<path d="M5296 8878 c3 -5 10 -6 15 -3 13 9 11 12 -6 12 -8 0 -12 -4 -9 -9z"/>
<path d="M5330 8887 c0 -2 6 -10 14 -16 11 -9 16 -9 22 1 4 7 4 10 -1 6 -4 -4
-14 -3 -22 3 -7 6 -13 9 -13 6z"/>
<path d="M5114 8868 c-4 -7 -4 -10 1 -6 4 4 14 3 21 -3 9 -7 14 -6 20 3 4 7 4
10 -1 6 -4 -4 -14 -3 -21 3 -9 7 -14 6 -20 -3z"/>
<path d="M5315 8860 c-4 -6 -11 -7 -17 -4 -7 4 -8 2 -4 -5 6 -8 12 -9 20 -2 7
6 17 7 21 3 5 -4 5 -1 1 6 -9 15 -13 15 -21 2z"/>
<path d="M5179 8838 c-6 -20 -6 -39 0 -42 4 -3 7 6 7 20 0 20 -4 32 -7 22z"/>
<path d="M5223 8825 c0 -8 4 -12 9 -9 5 3 6 10 3 15 -9 13 -12 11 -12 -6z"/>
<path d="M5085 8821 c-3 -5 -2 -12 3 -15 5 -3 9 1 9 9 0 17 -3 19 -12 6z"/>
<path d="M6136 8713 c19 -104 7 -233 -32 -340 -51 -142 -185 -294 -313 -354
-177 -84 -446 -178 -670 -234 -299 -74 -497 -99 -801 -99 -243 0 -377 13 -581
54 -567 116 -1078 441 -1242 791 -32 69 -32 70 -66 64 -19 -4 -114 -33 -210
-64 -932 -306 -1638 -872 -2018 -1618 -199 -390 -248 -661 -150 -824 39 -64
86 -103 163 -134 41 -16 64 -32 74 -52 91 -173 88 -169 159 -194 92 -31 290
-38 415 -15 152 29 323 91 513 188 294 150 325 165 392 187 162 53 304 50 429
-9 113 -53 178 -142 232 -320 66 -214 159 -346 315 -445 30 -19 67 -48 82 -65
39 -41 224 -150 319 -188 121 -48 189 -63 314 -69 192 -9 346 29 578 143 209
103 375 220 707 499 361 302 620 405 846 335 129 -39 211 -107 410 -336 181
-210 341 -342 567 -468 139 -77 237 -108 367 -113 118 -5 184 6 298 52 127 52
290 185 415 340 132 163 295 435 398 665 59 130 87 174 131 201 86 54 178 -26
297 -258 35 -67 63 -106 103 -143 30 -27 58 -50 62 -50 13 0 69 142 92 234 18
71 25 86 41 86 30 0 94 37 132 76 145 149 123 450 -58 808 -112 221 -233 387
-424 580 -475 480 -1218 859 -2122 1081 -79 19 -150 35 -157 35 -8 0 -11 -9
-7 -27z"/>
<path d="M900 5238 c0 -7 20 -83 44 -168 24 -85 56 -204 71 -265 31 -125 37
-132 195 -254 81 -63 83 -64 77 -35 -3 16 -34 144 -68 284 -34 140 -65 269
-68 285 -6 25 -20 37 -83 71 -41 22 -96 53 -122 68 -30 18 -46 22 -46 14z"/>
<path d="M8015 5221 c-17 -9 -59 -33 -95 -51 -93 -48 -117 -67 -123 -92 -2
-13 -36 -124 -75 -248 -251 -799 -482 -1762 -611 -2550 -45 -269 -42 -253 -81
-549 -17 -124 -30 -244 -30 -267 0 -24 -4 -45 -10 -49 -5 -3 -8 8 -5 27 2 18
6 85 10 148 4 63 8 131 10 150 2 19 7 78 10 130 4 52 8 102 10 110 2 8 6 53
10 100 4 47 8 92 10 100 2 8 6 49 10 90 4 41 8 82 10 90 2 8 6 44 9 80 4 36 9
76 11 90 2 14 7 44 10 68 8 67 16 125 20 152 2 14 7 45 10 70 11 83 24 169 31
205 2 10 6 37 9 60 6 41 32 193 39 231 2 12 7 39 10 60 6 36 40 218 51 274 3
14 7 36 10 50 3 14 7 36 10 50 3 14 7 37 10 53 3 15 12 60 21 100 8 39 17 81
20 92 2 11 6 31 9 45 4 14 8 36 11 50 4 22 26 118 40 175 3 11 7 32 10 46 3
14 34 138 70 275 35 137 67 259 69 271 3 12 14 50 25 84 10 35 18 65 16 67 -2
2 -60 -17 -127 -41 -68 -25 -189 -61 -269 -82 -80 -20 -148 -40 -152 -43 -6
-6 -43 -176 -61 -282 -3 -14 -21 -113 -40 -220 -31 -166 -47 -258 -72 -410
-52 -312 -112 -713 -145 -980 -11 -91 -22 -178 -25 -195 -2 -16 -13 -113 -25
-215 -29 -261 -28 -257 -35 -335 -4 -38 -8 -81 -10 -95 -2 -14 -6 -61 -10
-105 -3 -44 -8 -96 -10 -115 -2 -19 -7 -75 -10 -125 -4 -49 -8 -101 -10 -115
-2 -14 -6 -79 -10 -145 -3 -66 -8 -131 -10 -145 -3 -20 -17 -358 -19 -457 0
-12 -2 -20 -6 -18 -19 12 -16 1021 5 1340 2 28 6 102 9 165 6 111 10 159 21
300 3 36 7 97 10 135 3 39 7 88 10 110 2 22 7 76 11 120 3 44 8 87 9 96 2 9 6
52 10 95 4 43 9 87 10 96 2 9 7 48 10 85 4 37 9 75 10 83 2 8 6 44 10 80 4 36
9 72 10 81 2 9 6 40 10 70 3 30 8 65 10 79 2 14 7 45 10 70 4 25 8 59 11 75
11 66 13 82 19 125 3 25 8 56 10 70 3 14 7 40 10 58 3 17 7 46 10 62 3 17 7
45 10 63 5 29 20 113 29 162 5 27 19 98 22 110 1 6 5 30 9 55 3 25 10 63 15
85 5 22 7 41 5 43 -2 2 -66 -10 -142 -27 -77 -17 -224 -46 -327 -65 -104 -19
-192 -38 -196 -43 -4 -4 -15 -82 -24 -173 -10 -91 -19 -181 -21 -200 -15 -137
-19 -177 -39 -410 -8 -91 -17 -201 -21 -245 -6 -83 -13 -174 -20 -260 -2 -27
-7 -97 -10 -155 -3 -58 -8 -123 -10 -145 -2 -22 -7 -105 -10 -185 -4 -80 -8
-163 -10 -185 -2 -22 -7 -125 -11 -230 -3 -104 -8 -217 -10 -250 -7 -127 -12
-1244 -5 -1318 4 -48 2 -82 -4 -88 -7 -7 -3 -8 10 -3 18 7 19 6 5 -11 -9 -11
-10 -16 -2 -11 9 5 12 -4 13 -36 0 -24 2 -50 3 -58 2 -8 6 -51 10 -95 3 -44 8
-91 10 -105 6 -35 19 -160 19 -187 1 -13 2 -23 4 -23 1 0 51 21 110 46 498
213 864 530 921 799 6 28 22 115 37 195 136 749 541 2497 820 3544 53 197 94
360 93 362 -2 2 -17 -5 -33 -15z m-1028 -3858 c-3 -10 -5 -4 -5 12 0 17 2 24
5 18 2 -7 2 -21 0 -30z"/>
<path d="M1280 5043 c0 -5 10 -42 21 -83 11 -41 49 -187 84 -323 35 -137 65
-250 67 -251 51 -37 368 -199 375 -192 3 3 -20 121 -51 263 -31 142 -66 302
-78 355 l-21 97 -96 32 c-53 17 -140 49 -194 70 -105 42 -107 43 -107 32z"/>
<path d="M1810 4867 c1 -7 12 -61 26 -122 13 -60 45 -204 69 -320 25 -115 50
-231 56 -257 l11 -47 131 -52 c164 -64 388 -142 394 -135 5 5 -1 38 -71 376
-62 300 -93 440 -98 445 -2 2 -86 22 -188 44 -102 23 -218 50 -257 60 -51 13
-73 15 -73 8z"/>
<path d="M2450 4721 c0 -4 12 -64 26 -132 14 -68 52 -252 83 -409 l57 -285 37
-12 c91 -30 576 -147 583 -140 4 4 -87 520 -132 753 l-26 131 -117 18 c-64 9
-201 33 -304 51 -208 38 -207 38 -207 25z"/>
<path d="M5855 4619 c-67 -11 -351 -46 -495 -60 -63 -6 -116 -12 -116 -12 -1
-1 -5 -279 -8 -617 -4 -338 -9 -669 -11 -735 -2 -66 -7 -329 -10 -585 -3 -256
-8 -541 -10 -635 -2 -93 -6 -361 -9 -595 -4 -396 -1 -416 18 -120 4 58 9 116
11 130 2 14 6 77 10 140 4 63 8 126 10 140 2 14 7 72 10 130 4 58 8 121 10
140 2 19 6 82 10 140 4 58 8 121 10 140 2 19 6 82 10 140 4 58 8 121 10 140 2
19 6 82 10 140 4 58 8 121 10 140 2 19 6 87 10 150 3 63 8 126 10 140 2 14 6
75 10 135 6 112 14 187 20 193 5 6 165 -77 222 -115 110 -73 211 -183 259
-281 l23 -47 2 40 c15 465 20 613 24 670 2 33 7 114 10 180 10 201 23 402 30
465 2 25 7 90 10 145 3 55 8 117 11 138 5 36 5 37 -28 36 -18 -1 -55 -5 -83
-10z"/>
<path d="M3230 4600 c0 -4 20 -117 44 -251 185 -1017 302 -1971 346 -2799 5
-107 12 -231 15 -275 3 -44 5 -147 6 -230 2 -147 2 -149 12 -75 18 137 12
1322 -8 1430 -1 8 -6 80 -10 159 -4 79 -8 151 -10 160 -1 9 -6 66 -10 126 -3
61 -8 121 -10 135 -2 14 -6 66 -10 115 -3 50 -8 106 -10 125 -2 19 -7 64 -10
100 -3 36 -8 85 -10 110 -2 25 -7 74 -10 110 -3 36 -8 82 -11 103 -6 44 -9 43
118 22 48 -8 114 -17 145 -20 32 -4 65 -8 73 -10 8 -2 40 -6 70 -10 55 -6 86
-9 169 -20 l43 -6 -6 83 c-4 46 -9 99 -11 118 -2 19 -6 71 -10 115 -3 44 -8
103 -11 130 -2 28 -9 109 -14 180 -6 72 -13 168 -17 213 -3 47 -11 85 -17 87
-6 2 -85 9 -176 15 -213 14 -257 18 -482 44 -104 12 -188 19 -188 16z"/>
<path d="M4558 4522 c-221 -2 -288 -5 -288 -15 0 -6 7 -86 15 -177 16 -180 42
-491 50 -610 3 -41 8 -109 11 -150 3 -41 7 -93 9 -115 2 -22 7 -98 10 -170 3
-71 8 -143 10 -160 2 -16 6 -113 10 -215 4 -102 8 -195 10 -206 2 -12 6 -142
10 -290 4 -148 9 -285 11 -304 6 -61 5 -1381 -2 -1465 -8 -111 2 -91 16 30 6
55 13 116 15 135 19 171 37 488 51 925 8 241 7 1307 -1 1609 l-6 229 113 -7
c62 -3 124 -8 138 -10 14 -3 48 -7 75 -11 59 -7 202 -33 229 -41 19 -6 19 3
13 367 -4 206 -7 438 -7 517 l0 143 -102 -3 c-57 -2 -232 -4 -390 -6z"/>
<path d="M2035 840 c10 -11 20 -20 23 -20 3 0 -3 9 -13 20 -10 11 -20 20 -23
20 -3 0 3 -9 13 -20z"/>
<path d="M3908 43 c7 -3 16 -2 19 1 4 3 -2 6 -13 5 -11 0 -14 -3 -6 -6z"/>
<path d="M4858 23 c6 -2 18 -2 25 0 6 3 1 5 -13 5 -14 0 -19 -2 -12 -5z"/>
</g>
</svg>
